<mxfile host="Electron" agent="Mozilla/5.0 (Windows NT 10.0; Win64; x64) AppleWebKit/537.36 (KHTML, like Gecko) draw.io/24.7.8 Chrome/128.0.6613.36 Electron/32.0.1 Safari/537.36" version="24.7.8">
  <diagram name="Page-1" id="bfe91b75-5d2c-26a0-9c1d-138518896778">
    <mxGraphModel dx="1803" dy="2209" grid="1" gridSize="5" guides="1" tooltips="1" connect="1" arrows="1" fold="1" page="1" pageScale="1" pageWidth="827" pageHeight="1169" background="none" math="0" shadow="0">
      <root>
        <mxCell id="0" />
        <mxCell id="1" parent="0" />
        <mxCell id="7lB4LUnMgiLxfTUQEi6J-31" value="&lt;font color=&quot;#cccccc&quot;&gt;Local Network&lt;/font&gt;" style="rounded=1;whiteSpace=wrap;html=1;shadow=0;comic=0;strokeColor=#CCCCCC;strokeWidth=2;fillColor=none;fontFamily=Verdana;fontSize=28;fontColor=#6881B3;align=center;arcSize=5;verticalAlign=top;movable=1;resizable=1;rotatable=1;deletable=1;editable=1;locked=0;connectable=1;" parent="1" vertex="1">
          <mxGeometry x="20" y="-1150" width="619" height="430" as="geometry" />
        </mxCell>
        <mxCell id="CRX-ndjL-nMpCALsR_MP-20" value="&lt;font color=&quot;#cccccc&quot;&gt;DMZ&lt;/font&gt;" style="rounded=1;whiteSpace=wrap;html=1;shadow=0;comic=0;strokeColor=#CCCCCC;strokeWidth=2;fillColor=none;fontFamily=Verdana;fontSize=28;fontColor=#6881B3;align=center;arcSize=11;verticalAlign=top;dashed=1;labelPosition=center;verticalLabelPosition=bottom;" vertex="1" parent="1">
          <mxGeometry x="269" y="-1070" width="360" height="305" as="geometry" />
        </mxCell>
        <mxCell id="CRX-ndjL-nMpCALsR_MP-4" value="&lt;font color=&quot;#00cccc&quot;&gt;Guest Network&lt;/font&gt;" style="rounded=1;whiteSpace=wrap;html=1;shadow=0;comic=0;strokeColor=#00CCCC;strokeWidth=2;fillColor=none;fontFamily=Verdana;fontSize=28;fontColor=#6881B3;align=center;arcSize=11;verticalAlign=bottom;dashed=1;labelPosition=center;verticalLabelPosition=top;" vertex="1" parent="1">
          <mxGeometry x="34" y="-1070" width="222.97" height="94.43" as="geometry" />
        </mxCell>
        <mxCell id="7dg5oqyYYqUi_rrijcnK-11" style="rounded=1;orthogonalLoop=1;jettySize=auto;html=1;strokeColor=#E8B71A;strokeWidth=2;endArrow=none;endFill=0;" parent="1" edge="1">
          <mxGeometry relative="1" as="geometry">
            <mxPoint x="584.0027589901016" y="-961.5700000000002" as="sourcePoint" />
            <mxPoint x="584.001640771438" y="-947.7085714285713" as="targetPoint" />
          </mxGeometry>
        </mxCell>
        <mxCell id="7lB4LUnMgiLxfTUQEi6J-23" style="edgeStyle=orthogonalEdgeStyle;rounded=1;orthogonalLoop=1;jettySize=auto;html=1;curved=0;endArrow=none;endFill=0;strokeWidth=2;strokeColor=#666666;exitX=0.5;exitY=1;exitDx=0;exitDy=0;exitPerimeter=0;" parent="1" source="7lB4LUnMgiLxfTUQEi6J-21" edge="1">
          <mxGeometry relative="1" as="geometry">
            <mxPoint x="692.6036036036036" y="-905.0385714285713" as="targetPoint" />
            <Array as="points">
              <mxPoint x="778.1891891891892" y="-905.0385714285713" />
            </Array>
          </mxGeometry>
        </mxCell>
        <mxCell id="7lB4LUnMgiLxfTUQEi6J-29" value="&lt;font color=&quot;#7d32a8&quot;&gt;Home Network&lt;/font&gt;" style="rounded=1;whiteSpace=wrap;html=1;shadow=0;comic=0;strokeColor=#7D32A8;strokeWidth=2;fillColor=none;fontFamily=Verdana;fontSize=28;fontColor=#6881B3;align=center;arcSize=11;verticalAlign=top;dashed=1;labelPosition=center;verticalLabelPosition=bottom;" parent="1" vertex="1">
          <mxGeometry x="34" y="-890" width="222.97" height="125" as="geometry" />
        </mxCell>
        <mxCell id="7c3789c024ecab99-5" value="" style="fontColor=#0066CC;verticalAlign=top;verticalLabelPosition=bottom;labelPosition=center;align=center;html=1;fillColor=#CCCCCC;strokeColor=#6881B3;gradientColor=none;gradientDirection=north;strokeWidth=2;shape=mxgraph.networks.pc;rounded=0;shadow=0;comic=0;" parent="1" vertex="1">
          <mxGeometry x="174.38018018018033" y="-849.6928571428572" width="68.46846846846847" height="42.8" as="geometry" />
        </mxCell>
        <mxCell id="7c3789c024ecab99-6" value="" style="fontColor=#0066CC;verticalAlign=top;verticalLabelPosition=bottom;labelPosition=center;align=center;html=1;fillColor=#CCCCCC;strokeColor=#6881B3;gradientColor=none;gradientDirection=north;strokeWidth=2;shape=mxgraph.networks.printer;rounded=0;shadow=0;comic=0;" parent="1" vertex="1">
          <mxGeometry x="49.37918918918933" y="-1059.9942857142858" width="68.46846846846847" height="61.14285714285713" as="geometry" />
        </mxCell>
        <mxCell id="7c3789c024ecab99-12" value="" style="fontColor=#0066CC;verticalAlign=top;verticalLabelPosition=bottom;labelPosition=center;align=center;html=1;fillColor=#CCCCCC;strokeColor=#6881B3;gradientColor=none;gradientDirection=north;strokeWidth=2;shape=mxgraph.networks.mobile;rounded=0;shadow=0;comic=0;" parent="1" vertex="1">
          <mxGeometry x="49.37792792792811" y="-858.8657142857143" width="34.234234234234236" height="61.14285714285713" as="geometry" />
        </mxCell>
        <mxCell id="7lB4LUnMgiLxfTUQEi6J-96" style="edgeStyle=orthogonalEdgeStyle;rounded=1;orthogonalLoop=1;jettySize=auto;html=1;curved=0;endArrow=none;endFill=0;strokeColor=#C22525;strokeWidth=2;dashed=1;" parent="1" source="7lB4LUnMgiLxfTUQEi6J-13" target="7lB4LUnMgiLxfTUQEi6J-21" edge="1">
          <mxGeometry relative="1" as="geometry">
            <mxPoint x="692.6036036036036" y="-892.8100000000001" as="sourcePoint" />
            <Array as="points">
              <mxPoint x="788" y="-892.9499999999999" />
            </Array>
          </mxGeometry>
        </mxCell>
        <mxCell id="7lB4LUnMgiLxfTUQEi6J-14" style="rounded=1;orthogonalLoop=1;jettySize=auto;html=1;endArrow=none;endFill=0;strokeWidth=2;strokeColor=#666666;edgeStyle=orthogonalEdgeStyle;exitX=0.5;exitY=0.94;exitDx=0;exitDy=0;exitPerimeter=0;" parent="1" source="7lB4LUnMgiLxfTUQEi6J-13" target="7lB4LUnMgiLxfTUQEi6J-6" edge="1">
          <mxGeometry relative="1" as="geometry">
            <mxPoint x="698.2304504504503" y="-892.8100000000001" as="sourcePoint" />
          </mxGeometry>
        </mxCell>
        <mxCell id="7lB4LUnMgiLxfTUQEi6J-95" style="rounded=1;orthogonalLoop=1;jettySize=auto;html=1;strokeColor=#7D32A8;strokeWidth=2;endArrow=none;endFill=0;jumpStyle=arc;edgeStyle=orthogonalEdgeStyle;" parent="1" target="7lB4LUnMgiLxfTUQEi6J-83" edge="1" source="7lB4LUnMgiLxfTUQEi6J-20">
          <mxGeometry relative="1" as="geometry">
            <Array as="points">
              <mxPoint x="554" y="-910" />
            </Array>
            <mxPoint x="244" y="-681.0857142857144" as="sourcePoint" />
            <mxPoint x="140.5765765765766" y="-961.4300000000001" as="targetPoint" />
          </mxGeometry>
        </mxCell>
        <mxCell id="7dg5oqyYYqUi_rrijcnK-17" style="rounded=0;orthogonalLoop=1;jettySize=auto;html=1;endArrow=none;endFill=0;strokeColor=#7D32A8;strokeWidth=2;" parent="1" edge="1">
          <mxGeometry relative="1" as="geometry">
            <mxPoint x="554.0016407714379" y="-947.7085714285713" as="sourcePoint" />
            <mxPoint x="554.0027589901017" y="-961.5700000000002" as="targetPoint" />
          </mxGeometry>
        </mxCell>
        <mxCell id="7lB4LUnMgiLxfTUQEi6J-98" style="edgeStyle=orthogonalEdgeStyle;rounded=1;orthogonalLoop=1;jettySize=auto;html=1;curved=0;strokeWidth=2;strokeColor=#666666;endArrow=none;endFill=0;exitX=0.5;exitY=0.08;exitDx=0;exitDy=0;exitPerimeter=0;" parent="1" source="7lB4LUnMgiLxfTUQEi6J-21" target="7lB4LUnMgiLxfTUQEi6J-97" edge="1">
          <mxGeometry relative="1" as="geometry">
            <Array as="points">
              <mxPoint x="777" y="-997.9500000000003" />
            </Array>
          </mxGeometry>
        </mxCell>
        <mxCell id="7lB4LUnMgiLxfTUQEi6J-21" value="" style="html=1;outlineConnect=0;fillColor=#CCCCCC;strokeColor=#6881B3;gradientColor=none;gradientDirection=north;strokeWidth=2;shape=mxgraph.networks.cloud;fontColor=#ffffff;" parent="1" vertex="1">
          <mxGeometry x="746.1583783783783" y="-953.9528571428573" width="61.62162162162162" height="30.571428571428566" as="geometry" />
        </mxCell>
        <mxCell id="7dg5oqyYYqUi_rrijcnK-6" style="rounded=1;orthogonalLoop=1;jettySize=auto;html=1;endArrow=none;endFill=0;strokeColor=#2AA02C;strokeWidth=2;edgeStyle=orthogonalEdgeStyle;" parent="1" source="7lB4LUnMgiLxfTUQEi6J-35" target="7lB4LUnMgiLxfTUQEi6J-20" edge="1">
          <mxGeometry relative="1" as="geometry">
            <Array as="points">
              <mxPoint x="391" y="-888.95" />
              <mxPoint x="574" y="-888.95" />
            </Array>
            <mxPoint x="574" y="-908.6057142857146" as="targetPoint" />
          </mxGeometry>
        </mxCell>
        <mxCell id="7lB4LUnMgiLxfTUQEi6J-35" value="&lt;font color=&quot;#cccccc&quot;&gt;TrueNAS&lt;/font&gt;" style="fontColor=#0066CC;verticalAlign=top;verticalLabelPosition=bottom;labelPosition=center;align=center;html=1;outlineConnect=0;fillColor=#CCCCCC;strokeColor=#6881B3;gradientColor=none;gradientDirection=north;strokeWidth=2;shape=mxgraph.networks.server_storage;" parent="1" vertex="1">
          <mxGeometry x="363.99828828828834" y="-862.2885714285715" width="71.89189189189189" height="64.2" as="geometry" />
        </mxCell>
        <mxCell id="7dg5oqyYYqUi_rrijcnK-3" style="rounded=1;orthogonalLoop=1;jettySize=auto;html=1;endArrow=none;endFill=0;strokeWidth=2;strokeColor=#166EE5;jumpStyle=none;edgeStyle=orthogonalEdgeStyle;" parent="1" edge="1">
          <mxGeometry relative="1" as="geometry">
            <mxPoint x="311.0053475935829" y="-861.4028571428572" as="sourcePoint" />
            <Array as="points">
              <mxPoint x="311" y="-898.95" />
              <mxPoint x="564" y="-898.95" />
            </Array>
            <mxPoint x="564.0000000000002" y="-930.4757142857144" as="targetPoint" />
          </mxGeometry>
        </mxCell>
        <mxCell id="CRX-ndjL-nMpCALsR_MP-1" style="rounded=1;orthogonalLoop=1;jettySize=auto;html=1;endArrow=none;endFill=0;strokeColor=#7D32A8;edgeStyle=orthogonalEdgeStyle;curved=0;strokeWidth=2;" edge="1" parent="1" source="7lB4LUnMgiLxfTUQEi6J-83" target="7c3789c024ecab99-12">
          <mxGeometry relative="1" as="geometry">
            <Array as="points">
              <mxPoint x="209" y="-870" />
              <mxPoint x="66" y="-870" />
            </Array>
          </mxGeometry>
        </mxCell>
        <mxCell id="CRX-ndjL-nMpCALsR_MP-15" style="edgeStyle=orthogonalEdgeStyle;rounded=1;orthogonalLoop=1;jettySize=auto;html=1;strokeColor=#00CCCC;strokeWidth=2;curved=0;endArrow=none;endFill=0;" edge="1" parent="1" source="7lB4LUnMgiLxfTUQEi6J-83" target="CRX-ndjL-nMpCALsR_MP-12">
          <mxGeometry relative="1" as="geometry" />
        </mxCell>
        <mxCell id="CRX-ndjL-nMpCALsR_MP-16" style="edgeStyle=orthogonalEdgeStyle;rounded=1;orthogonalLoop=1;jettySize=auto;html=1;strokeColor=#00CCCC;strokeWidth=2;curved=0;endArrow=none;endFill=0;" edge="1" parent="1" source="7lB4LUnMgiLxfTUQEi6J-83" target="CRX-ndjL-nMpCALsR_MP-7">
          <mxGeometry relative="1" as="geometry">
            <mxPoint x="208.24731182795676" y="-948.9485714285713" as="sourcePoint" />
            <mxPoint x="148.23216216216247" y="-1017.3200000000002" as="targetPoint" />
            <Array as="points">
              <mxPoint x="209" y="-985" />
              <mxPoint x="146" y="-985" />
            </Array>
          </mxGeometry>
        </mxCell>
        <mxCell id="7lB4LUnMgiLxfTUQEi6J-83" value="" style="fontColor=#0066CC;verticalAlign=top;verticalLabelPosition=bottom;labelPosition=center;align=center;html=1;outlineConnect=0;fillColor=#CCCCCC;strokeColor=#6881B3;gradientColor=none;gradientDirection=north;strokeWidth=2;shape=mxgraph.networks.wireless_modem;" parent="1" vertex="1">
          <mxGeometry x="174.37810810810805" y="-956.6285714285714" width="68.46846846846847" height="51.97142857142856" as="geometry" />
        </mxCell>
        <mxCell id="7lB4LUnMgiLxfTUQEi6J-85" style="rounded=1;orthogonalLoop=1;jettySize=auto;html=1;endArrow=none;endFill=0;strokeWidth=2;strokeColor=#00CCCC;edgeStyle=orthogonalEdgeStyle;curved=0;entryX=0.502;entryY=1.019;entryDx=0;entryDy=0;entryPerimeter=0;" parent="1" source="7lB4LUnMgiLxfTUQEi6J-83" target="7c3789c024ecab99-6" edge="1">
          <mxGeometry relative="1" as="geometry">
            <Array as="points">
              <mxPoint x="209" y="-985" />
              <mxPoint x="84" y="-985" />
            </Array>
          </mxGeometry>
        </mxCell>
        <mxCell id="7lB4LUnMgiLxfTUQEi6J-87" style="rounded=1;orthogonalLoop=1;jettySize=auto;html=1;endArrow=none;endFill=0;strokeWidth=2;strokeColor=#7D32A8;entryX=0.499;entryY=0.094;entryDx=0;entryDy=0;entryPerimeter=0;" parent="1" source="7lB4LUnMgiLxfTUQEi6J-83" target="7c3789c024ecab99-5" edge="1">
          <mxGeometry relative="1" as="geometry">
            <mxPoint x="132.3603603603603" y="-892.4285714285714" as="sourcePoint" />
            <mxPoint x="161.11711711711706" y="-831.2857142857143" as="targetPoint" />
          </mxGeometry>
        </mxCell>
        <mxCell id="7lB4LUnMgiLxfTUQEi6J-91" value="" style="fontColor=#0066CC;verticalAlign=top;verticalLabelPosition=bottom;labelPosition=center;align=center;html=1;outlineConnect=0;fillColor=#CCCCCC;strokeColor=#6881B3;gradientColor=none;gradientDirection=north;strokeWidth=2;shape=mxgraph.networks.laptop;" parent="1" vertex="1">
          <mxGeometry x="94.38117117117116" y="-845.1114285714284" width="68.46846846846847" height="33.62857142857142" as="geometry" />
        </mxCell>
        <mxCell id="7lB4LUnMgiLxfTUQEi6J-93" style="rounded=1;orthogonalLoop=1;jettySize=auto;html=1;endArrow=none;endFill=0;strokeWidth=2;strokeColor=#7D32A8;entryX=0.5;entryY=0;entryDx=0;entryDy=0;entryPerimeter=0;edgeStyle=orthogonalEdgeStyle;" parent="1" source="7lB4LUnMgiLxfTUQEi6J-83" target="7lB4LUnMgiLxfTUQEi6J-91" edge="1">
          <mxGeometry relative="1" as="geometry">
            <mxPoint x="25.54954954954951" y="-907.7142857142858" as="sourcePoint" />
            <mxPoint x="-10.054054054054063" y="-834.3428571428572" as="targetPoint" />
            <Array as="points">
              <mxPoint x="209" y="-870" />
              <mxPoint x="129" y="-870" />
            </Array>
          </mxGeometry>
        </mxCell>
        <mxCell id="7lB4LUnMgiLxfTUQEi6J-99" style="edgeStyle=orthogonalEdgeStyle;rounded=1;orthogonalLoop=1;jettySize=auto;html=1;strokeWidth=2;strokeColor=#666666;endArrow=none;endFill=0;curved=0;exitX=0;exitY=0.5;exitDx=0;exitDy=0;exitPerimeter=0;" parent="1" source="7lB4LUnMgiLxfTUQEi6J-97" target="7dg5oqyYYqUi_rrijcnK-2" edge="1">
          <mxGeometry relative="1" as="geometry">
            <Array as="points">
              <mxPoint x="667.16" y="-998.9500000000003" />
              <mxPoint x="667.16" y="-998.9500000000003" />
            </Array>
          </mxGeometry>
        </mxCell>
        <mxCell id="7lB4LUnMgiLxfTUQEi6J-97" value="ISP" style="fontColor=#CCCCCC;verticalAlign=bottom;verticalLabelPosition=top;labelPosition=center;align=center;html=1;outlineConnect=0;fillColor=#CCCCCC;strokeColor=#6881B3;gradientColor=none;gradientDirection=north;strokeWidth=2;shape=mxgraph.networks.firewall;" parent="1" vertex="1">
          <mxGeometry x="659.0025225225226" y="-1028.9514285714288" width="68.46846846846847" height="61.14285714285713" as="geometry" />
        </mxCell>
        <mxCell id="7dg5oqyYYqUi_rrijcnK-9" style="rounded=1;orthogonalLoop=1;jettySize=auto;html=1;strokeColor=#E8B71A;strokeWidth=2;endArrow=none;endFill=0;jumpStyle=none;edgeStyle=orthogonalEdgeStyle;" parent="1" source="ninFRkXrrm-hi6K4wgUG-6" edge="1">
          <mxGeometry relative="1" as="geometry">
            <Array as="points">
              <mxPoint x="584" y="-892.29" />
              <mxPoint x="584" y="-892.29" />
            </Array>
            <mxPoint x="584" y="-903.9457142857141" as="targetPoint" />
          </mxGeometry>
        </mxCell>
        <mxCell id="7dg5oqyYYqUi_rrijcnK-10" style="rounded=1;orthogonalLoop=1;jettySize=auto;html=1;strokeColor=#E8B71A;strokeWidth=2;endArrow=none;endFill=0;jumpStyle=none;edgeStyle=orthogonalEdgeStyle;exitX=0.5;exitY=0;exitDx=0;exitDy=0;exitPerimeter=0;" parent="1" source="ninFRkXrrm-hi6K4wgUG-7" edge="1">
          <mxGeometry relative="1" as="geometry">
            <Array as="points">
              <mxPoint x="490" y="-878.95" />
              <mxPoint x="584" y="-878.95" />
            </Array>
            <mxPoint x="584" y="-903.9457142857141" as="targetPoint" />
          </mxGeometry>
        </mxCell>
        <mxCell id="ninFRkXrrm-hi6K4wgUG-7" value="&lt;span style=&quot;color: rgb(204, 204, 204);&quot;&gt;Backupserver&lt;/span&gt;" style="fontColor=#0066CC;verticalAlign=top;verticalLabelPosition=bottom;labelPosition=center;align=center;html=1;outlineConnect=0;fillColor=#CCCCCC;strokeColor=#6881B3;gradientColor=none;gradientDirection=north;strokeWidth=2;shape=mxgraph.networks.server_storage;" parent="1" vertex="1">
          <mxGeometry x="453.99738738738733" y="-862.2942857142859" width="71.89189189189189" height="64.2" as="geometry" />
        </mxCell>
        <mxCell id="7dg5oqyYYqUi_rrijcnK-15" style="rounded=1;orthogonalLoop=1;jettySize=auto;html=1;strokeWidth=2;strokeColor=#C22525;dashed=1;endArrow=none;endFill=0;edgeStyle=orthogonalEdgeStyle;" parent="1" source="7dg5oqyYYqUi_rrijcnK-2" target="7lB4LUnMgiLxfTUQEi6J-13" edge="1">
          <mxGeometry relative="1" as="geometry">
            <Array as="points">
              <mxPoint x="649" y="-992" />
              <mxPoint x="649" y="-895" />
            </Array>
          </mxGeometry>
        </mxCell>
        <mxCell id="7dg5oqyYYqUi_rrijcnK-7" style="rounded=1;orthogonalLoop=1;jettySize=auto;html=1;strokeColor=#E8B71A;strokeWidth=2;endArrow=none;endFill=0;jumpStyle=none;edgeStyle=orthogonalEdgeStyle;" parent="1" source="7lB4LUnMgiLxfTUQEi6J-35" edge="1">
          <mxGeometry relative="1" as="geometry">
            <Array as="points">
              <mxPoint x="400" y="-878.95" />
              <mxPoint x="584" y="-878.95" />
            </Array>
            <mxPoint x="584" y="-903.9457142857141" as="targetPoint" />
          </mxGeometry>
        </mxCell>
        <mxCell id="7dg5oqyYYqUi_rrijcnK-16" value="" style="rounded=1;orthogonalLoop=1;jettySize=auto;html=1;endArrow=none;endFill=0;strokeWidth=2;strokeColor=#E8B71A;jumpStyle=gap;edgeStyle=orthogonalEdgeStyle;" parent="1" source="7dg5oqyYYqUi_rrijcnK-18" target="7lB4LUnMgiLxfTUQEi6J-20" edge="1">
          <mxGeometry relative="1" as="geometry">
            <mxPoint x="277.4226126126125" y="-787.2560016239476" as="sourcePoint" />
            <mxPoint x="584" y="-908.605714285714" as="targetPoint" />
            <Array as="points">
              <mxPoint x="321" y="-878.95" />
              <mxPoint x="584" y="-878.95" />
            </Array>
          </mxGeometry>
        </mxCell>
        <mxCell id="ninFRkXrrm-hi6K4wgUG-6" value="MGMT-Server" style="fontColor=#CCCCCC;verticalAlign=top;verticalLabelPosition=bottom;labelPosition=center;align=center;html=1;outlineConnect=0;fillColor=#CCCCCC;strokeColor=#6881B3;gradientColor=none;gradientDirection=north;strokeWidth=2;shape=mxgraph.networks.server;" parent="1" vertex="1">
          <mxGeometry x="550.0044144144143" y="-862.2928571428572" width="61.62162162162162" height="61.14285714285713" as="geometry" />
        </mxCell>
        <mxCell id="7dg5oqyYYqUi_rrijcnK-19" value="" style="rounded=1;orthogonalLoop=1;jettySize=auto;html=1;strokeColor=#166EE5;strokeWidth=2;endArrow=none;endFill=0;" parent="1" edge="1">
          <mxGeometry relative="1" as="geometry">
            <mxPoint x="564" y="-964.8300000000002" as="sourcePoint" />
            <mxPoint x="564.0025139664805" y="-948.9457142857145" as="targetPoint" />
          </mxGeometry>
        </mxCell>
        <mxCell id="7dg5oqyYYqUi_rrijcnK-18" value="AMP-Server" style="fontColor=#CCCCCC;verticalAlign=top;verticalLabelPosition=bottom;labelPosition=center;align=center;html=1;outlineConnect=0;fillColor=#CCCCCC;strokeColor=#6881B3;gradientColor=none;gradientDirection=north;strokeWidth=2;shape=mxgraph.networks.server;" parent="1" vertex="1">
          <mxGeometry x="284.0044144144143" y="-861.5328571428572" width="61.62162162162162" height="61.14285714285713" as="geometry" />
        </mxCell>
        <mxCell id="7dg5oqyYYqUi_rrijcnK-20" value="" style="edgeStyle=orthogonalEdgeStyle;rounded=1;orthogonalLoop=1;jettySize=auto;html=1;curved=0;endArrow=none;endFill=0;strokeColor=#C22525;strokeWidth=2;dashed=1;" parent="1" target="7lB4LUnMgiLxfTUQEi6J-13" edge="1">
          <mxGeometry relative="1" as="geometry">
            <mxPoint x="692.6036036036036" y="-892.8100000000001" as="sourcePoint" />
            <Array as="points" />
            <mxPoint x="788" y="-922.9499999999999" as="targetPoint" />
          </mxGeometry>
        </mxCell>
        <mxCell id="7lB4LUnMgiLxfTUQEi6J-13" value="&lt;font color=&quot;#cccccc&quot;&gt;Proxy-Server&lt;/font&gt;" style="fontColor=#0066CC;verticalAlign=bottom;verticalLabelPosition=top;labelPosition=center;align=center;html=1;outlineConnect=0;fillColor=#CCCCCC;strokeColor=#6881B3;gradientColor=none;gradientDirection=north;strokeWidth=2;shape=mxgraph.networks.proxy_server;" parent="1" vertex="1">
          <mxGeometry x="663.9962162162161" y="-930.4771428571429" width="71.89189189189189" height="64.2" as="geometry" />
        </mxCell>
        <mxCell id="7lB4LUnMgiLxfTUQEi6J-6" value="" style="fontColor=#0066CC;verticalAlign=top;verticalLabelPosition=bottom;labelPosition=center;align=center;html=1;outlineConnect=0;fillColor=#CCCCCC;strokeColor=#6881B3;gradientColor=none;gradientDirection=north;strokeWidth=2;shape=mxgraph.networks.web_server;" parent="1" vertex="1">
          <mxGeometry x="663.9962162162161" y="-853.067142857143" width="71.89189189189189" height="64.2" as="geometry" />
        </mxCell>
        <mxCell id="7dg5oqyYYqUi_rrijcnK-12" style="rounded=1;orthogonalLoop=1;jettySize=auto;html=1;strokeColor=#2AA02C;strokeWidth=2;endArrow=none;endFill=0;curved=0;" parent="1" edge="1">
          <mxGeometry relative="1" as="geometry">
            <mxPoint x="574.0027589901016" y="-961.5699999999999" as="sourcePoint" />
            <mxPoint x="573.9999999999999" y="-946.5699999999997" as="targetPoint" />
          </mxGeometry>
        </mxCell>
        <mxCell id="CRX-ndjL-nMpCALsR_MP-7" value="" style="fontColor=#0066CC;verticalAlign=top;verticalLabelPosition=bottom;labelPosition=center;align=center;html=1;fillColor=#CCCCCC;strokeColor=#6881B3;gradientColor=none;gradientDirection=north;strokeWidth=2;shape=mxgraph.networks.mobile;rounded=0;shadow=0;comic=0;" vertex="1" parent="1">
          <mxGeometry x="128.99792792792812" y="-1059.9957142857143" width="34.234234234234236" height="61.14285714285713" as="geometry" />
        </mxCell>
        <mxCell id="CRX-ndjL-nMpCALsR_MP-12" value="" style="fontColor=#0066CC;verticalAlign=top;verticalLabelPosition=bottom;labelPosition=center;align=center;html=1;outlineConnect=0;fillColor=#CCCCCC;strokeColor=#6881B3;gradientColor=none;gradientDirection=north;strokeWidth=2;shape=mxgraph.networks.laptop;" vertex="1" parent="1">
          <mxGeometry x="174.00117117117117" y="-1035.0014285714285" width="68.46846846846847" height="33.62857142857142" as="geometry" />
        </mxCell>
        <mxCell id="CRX-ndjL-nMpCALsR_MP-18" style="rounded=1;orthogonalLoop=1;jettySize=auto;html=1;strokeColor=#00CCCC;strokeWidth=2;endArrow=none;endFill=0;" edge="1" parent="1">
          <mxGeometry relative="1" as="geometry">
            <mxPoint x="544.0027589901016" y="-962.8100000000002" as="sourcePoint" />
            <mxPoint x="544.001640771438" y="-948.9485714285715" as="targetPoint" />
          </mxGeometry>
        </mxCell>
        <mxCell id="7dg5oqyYYqUi_rrijcnK-2" value="&lt;font color=&quot;#cccccc&quot;&gt;DMZ Router&lt;/font&gt;" style="fontColor=#0066CC;verticalAlign=bottom;verticalLabelPosition=top;labelPosition=center;align=center;html=1;outlineConnect=0;fillColor=#CCCCCC;strokeColor=#6881B3;gradientColor=none;gradientDirection=north;strokeWidth=2;shape=mxgraph.networks.server;" parent="1" vertex="1">
          <mxGeometry x="530.5844144144144" y="-1022.7128571428575" width="61.62162162162162" height="61.14285714285713" as="geometry" />
        </mxCell>
        <mxCell id="7lB4LUnMgiLxfTUQEi6J-20" value="" style="fontColor=#0066CC;verticalAlign=top;verticalLabelPosition=bottom;labelPosition=center;align=center;html=1;outlineConnect=0;fillColor=#CCCCCC;strokeColor=#6881B3;gradientColor=none;gradientDirection=north;strokeWidth=2;shape=mxgraph.networks.router;" parent="1" vertex="1">
          <mxGeometry x="527.1566666666666" y="-948.9485714285715" width="68.46846846846847" height="18.34285714285714" as="geometry" />
        </mxCell>
        <mxCell id="CRX-ndjL-nMpCALsR_MP-19" style="rounded=1;orthogonalLoop=1;jettySize=auto;html=1;strokeColor=#00CCCC;strokeWidth=2;endArrow=none;endFill=0;jumpStyle=arc;edgeStyle=orthogonalEdgeStyle;" edge="1" parent="1" source="7lB4LUnMgiLxfTUQEi6J-20" target="7lB4LUnMgiLxfTUQEi6J-83">
          <mxGeometry relative="1" as="geometry">
            <Array as="points">
              <mxPoint x="544" y="-920" />
            </Array>
            <mxPoint x="562" y="-1005" as="sourcePoint" />
            <mxPoint x="213" y="-952" as="targetPoint" />
          </mxGeometry>
        </mxCell>
      </root>
    </mxGraphModel>
  </diagram>
</mxfile>
